<?xml version="1.0" standalone="no"?>
<!DOCTYPE svg PUBLIC "-//W3C//DTD SVG 20010904//EN"
 "http://www.w3.org/TR/2001/REC-SVG-20010904/DTD/svg10.dtd">
<svg version="1.0" xmlns="http://www.w3.org/2000/svg"
 width="673.000000pt" height="673.000000pt" viewBox="0 0 673.000000 673.000000"
 preserveAspectRatio="xMidYMid meet">

<g transform="translate(0.000000,673.000000) scale(0.100000,-0.100000)"
fill="#000000" stroke="none">
<path d="M1567 5713 c-3 -5 -19 -55 -36 -113 -63 -208 -62 -205 -101 -204 -19
0 -117 4 -216 8 -100 4 -184 4 -187 -1 -14 -23 -117 -1667 -105 -1678 7 -7 87
76 104 109 7 11 37 102 67 201 30 99 81 261 112 360 32 99 75 239 97 310 81
270 199 623 211 633 8 7 75 8 207 2 107 -5 265 -11 350 -14 85 -4 322 -13 525
-21 204 -8 557 -21 785 -30 228 -8 440 -19 470 -24 30 -6 161 -30 290 -55 129
-25 366 -70 525 -100 964 -183 1328 -255 1336 -263 5 -5 2 -98 -6 -218 -27
-396 -37 -584 -30 -605 3 -11 15 -20 25 -20 24 0 26 14 40 240 6 96 15 239 20
317 6 78 10 171 10 207 0 77 -10 74 140 46 186 -34 214 -40 223 -49 4 -4 -12
-68 -37 -142 -24 -74 -79 -249 -121 -389 -42 -140 -86 -283 -97 -318 -15 -41
-18 -66 -12 -72 26 -26 48 24 140 320 52 168 117 374 144 459 28 84 50 159 50
166 0 8 -28 17 -73 24 -39 6 -133 24 -207 40 l-135 28 4 171 4 171 -34 5 c-36
6 -352 20 -829 36 -157 5 -449 16 -650 25 -201 8 -453 17 -560 20 -222 7 -305
21 -1430 241 -151 29 -338 65 -415 79 -77 14 -233 44 -346 65 -212 41 -245 45
-252 33z m826 -184 c402 -77 810 -155 905 -172 94 -17 172 -35 172 -40 0 -4
-19 -6 -42 -3 -24 3 -187 11 -363 16 -176 6 -430 15 -565 20 -135 5 -371 14
-525 20 -395 14 -445 19 -445 37 0 16 66 239 75 254 4 5 17 9 31 9 13 0 354
-63 757 -141z m-1005 -175 c53 -5 63 -9 59 -22 -3 -10 -57 -179 -120 -377 -63
-198 -133 -418 -155 -490 -22 -71 -70 -226 -106 -344 -36 -117 -66 -219 -66
-227 0 -8 -5 -14 -11 -14 -11 0 -11 28 7 290 2 41 20 324 39 629 21 334 39
557 45 561 11 7 206 3 308 -6z m3522 -134 c278 -11 640 -25 805 -31 165 -6
304 -15 308 -19 5 -4 5 -68 1 -143 -5 -100 -10 -137 -20 -141 -8 -3 -103 13
-211 35 -109 21 -364 71 -568 110 -203 38 -451 85 -550 104 -99 19 -256 48
-350 65 -309 55 -330 55 585 20z"/>
<path d="M3298 4727 c-100 -29 -117 -68 -119 -280 l-1 -157 -79 2 c-130 2
-123 23 -131 -370 -3 -180 -9 -366 -13 -414 -4 -47 -4 -95 -1 -106 9 -27 46
-39 141 -47 44 -4 96 -8 115 -10 83 -10 342 -25 426 -25 67 0 95 4 103 14 9
11 12 133 11 466 0 429 0 452 17 445 40 -16 54 -17 78 -1 20 13 26 14 30 4 5
-16 22 -205 35 -403 6 -82 13 -168 15 -190 2 -22 7 -88 11 -147 l7 -106 -29
-15 c-16 -8 -48 -20 -71 -26 -44 -12 -58 -31 -23 -31 10 0 43 9 73 20 57 21
76 45 72 90 -1 14 -10 135 -19 270 -40 585 -43 602 -101 564 -23 -15 -31 -16
-63 -4 -64 23 -63 31 -55 -461 5 -363 4 -441 -7 -455 -12 -14 -30 -15 -130
-10 -133 7 -503 35 -540 41 -14 2 -30 4 -37 4 -25 2 -41 30 -37 68 2 21 9 202
15 403 8 286 14 370 25 388 12 19 23 22 72 22 75 0 86 -9 89 -66 4 -77 57
-110 103 -64 39 39 14 104 -50 130 l-31 13 2 152 c1 218 24 259 154 272 68 7
120 -16 134 -60 6 -18 11 -95 12 -172 2 -175 1 -195 -8 -194 -5 1 -38 1 -75 0
-94 -1 -87 -21 7 -21 l74 0 6 -37 c10 -59 22 -82 49 -89 55 -14 94 29 75 84
-10 28 -54 62 -82 62 -13 0 -16 28 -19 178 -3 144 -7 183 -21 209 -32 59 -120
84 -209 60z m-58 -492 c52 -27 35 -104 -17 -84 -19 7 -23 16 -23 54 0 25 2 45
5 45 4 0 19 -7 35 -15z m350 -5 c11 -11 20 -24 20 -29 0 -26 -15 -41 -40 -41
-30 0 -40 15 -40 61 0 35 29 40 60 9z"/>
<path d="M907 3253 c-25 -50 -32 -94 -42 -293 -3 -58 -8 -127 -10 -155 -6 -57
-29 -420 -46 -730 -6 -115 -15 -214 -19 -218 -8 -9 -340 50 -354 63 -5 5 9 65
34 142 23 73 75 239 115 368 39 129 87 279 105 332 19 54 31 100 28 103 -3 3
-16 1 -29 -4 -21 -8 -33 -39 -98 -248 -40 -131 -107 -343 -148 -471 -41 -128
-73 -238 -70 -245 2 -6 95 -29 208 -52 l204 -40 -3 -130 c-2 -71 -5 -147 -8
-167 -2 -21 1 -40 7 -44 6 -4 104 -10 218 -15 415 -17 1264 -49 1556 -59 165
-5 350 -12 410 -14 61 -3 171 -16 245 -31 74 -14 218 -42 320 -61 102 -20 298
-58 435 -85 138 -27 333 -64 435 -84 102 -19 338 -64 525 -100 187 -35 345
-65 352 -65 7 0 26 46 43 103 17 56 40 130 51 164 l20 61 223 -5 223 -6 7 79
c3 43 9 120 12 169 2 50 11 185 19 300 16 223 26 383 50 795 8 140 17 272 20
293 7 49 -8 47 -30 -5 -10 -24 -47 -90 -81 -148 -65 -110 -86 -168 -234 -645
-122 -393 -222 -707 -236 -741 -17 -41 21 -40 -499 -19 -203 8 -671 26 -1040
39 -368 14 -699 27 -735 30 -61 5 -154 21 -535 96 -82 16 -269 52 -415 80
-146 28 -357 68 -470 90 -113 21 -279 53 -370 70 -91 18 -228 44 -305 59
l-140 28 0 44 c1 63 14 283 30 509 8 107 15 247 15 310 0 63 5 144 10 180 11
75 32 411 26 418 -3 2 -16 -18 -29 -45z m4963 -644 c-5 -96 -12 -210 -15 -254
-3 -44 -19 -293 -35 -553 -16 -260 -33 -478 -36 -484 -7 -11 -361 -4 -373 7
-2 3 27 103 67 223 39 119 101 314 137 432 36 118 83 269 105 335 21 66 53
167 70 225 27 91 59 193 76 239 12 35 13 -8 4 -170z m-4790 -860 c80 -15 161
-31 180 -34 19 -3 116 -22 215 -41 99 -20 214 -42 255 -49 41 -8 215 -41 385
-73 171 -33 380 -73 467 -88 86 -16 154 -32 151 -37 -2 -4 -19 -5 -36 -3 -18
3 -120 8 -227 11 -107 3 -298 10 -425 15 -126 5 -423 16 -660 25 -236 8 -459
17 -494 21 l-64 6 6 113 c4 61 10 127 13 144 8 38 -9 38 234 -10z m2690 -404
c776 -29 986 -37 1180 -45 124 -5 257 -10 295 -10 39 0 75 -4 82 -8 9 -6 1
-43 -31 -142 l-43 -135 -41 2 c-22 1 -216 36 -429 77 -213 42 -426 82 -473 91
-47 8 -119 21 -160 29 -258 52 -597 116 -665 127 -124 19 -115 31 20 25 66 -3
185 -8 265 -11z"/>
<path d="M3392 2925 c-63 -27 -56 -105 19 -188 55 -62 71 -101 60 -144 -15
-57 -91 -53 -91 4 0 31 -24 26 -28 -6 -9 -56 84 -85 129 -40 18 18 21 30 17
80 -4 55 -8 64 -50 107 -54 56 -68 80 -68 122 0 23 6 33 24 42 31 14 56 4 56
-22 0 -11 7 -20 15 -20 16 0 20 27 7 47 -15 23 -56 32 -90 18z"/>
<path d="M2614 2908 c3 -13 6 -103 6 -200 l0 -178 70 0 c53 0 70 3 70 14 0 11
-13 14 -52 13 l-53 -2 -7 140 c-5 77 -6 161 -3 188 5 43 4 47 -16 47 -17 0
-20 -4 -15 -22z"/>
<path d="M2780 2914 c0 -12 6 -15 25 -10 33 8 36 -5 33 -194 l-3 -155 -24 0
c-13 0 -26 -6 -29 -13 -3 -10 11 -12 62 -10 36 2 66 8 66 13 0 6 -10 10 -23
10 -22 0 -22 1 -25 178 l-3 177 31 0 c16 0 30 5 30 10 0 6 -30 10 -70 10 -58
0 -70 -3 -70 -16z"/>
<path d="M2952 2919 c3 -8 10 -13 15 -12 6 1 13 -68 16 -170 6 -147 5 -174 -8
-183 -25 -19 -17 -24 35 -24 41 0 56 5 82 29 32 29 33 32 37 121 4 125 -5 175
-38 212 -23 26 -37 32 -86 36 -46 4 -57 2 -53 -9z m109 -32 c26 -20 37 -49 45
-114 14 -130 -13 -213 -71 -213 l-25 0 0 170 c0 155 2 170 18 170 9 0 24 -6
33 -13z"/>
<path d="M3558 2923 c-2 -5 -2 -95 0 -200 2 -161 5 -193 17 -193 11 0 15 13
15 48 l0 48 50 2 50 2 0 -50 c0 -38 4 -50 15 -50 11 0 15 12 15 50 0 43 3 50
20 50 11 0 20 5 20 10 0 6 -9 10 -20 10 -20 0 -21 5 -19 138 1 119 -1 137 -15
140 -14 3 -16 -13 -16 -137 l0 -141 -50 0 -50 0 -2 83 c-2 45 -2 108 -1 140 1
42 -2 57 -12 57 -8 0 -15 -3 -17 -7z"/>
<path d="M3844 2922 c-60 -39 -69 -295 -12 -367 27 -34 81 -35 103 -2 26 40
40 175 28 257 -14 91 -33 120 -76 120 -17 0 -37 -4 -43 -8z m71 -32 c27 -29
33 -196 11 -273 -18 -61 -27 -71 -55 -62 -33 10 -46 62 -46 180 1 85 5 117 18
143 20 37 46 41 72 12z"/>
<path d="M4000 2915 c0 -11 5 -15 15 -11 16 6 17 -15 19 -292 1 -68 4 -82 16
-80 11 3 14 15 12 49 -3 45 -3 46 37 61 55 22 74 67 69 160 -5 90 -31 119
-112 126 -48 4 -56 2 -56 -13z m128 -43 c25 -38 22 -144 -5 -180 -11 -15 -30
-28 -42 -30 -21 -3 -21 -1 -21 121 l0 124 26 -5 c14 -2 33 -16 42 -30z"/>
</g>
</svg>
